<svg width="841.9" height="595.3" xmlns="http://www.w3.org/2000/svg" xmlns:svg="http://www.w3.org/2000/svg">
 <g class="layer">
  <title>Layer 1</title>
  <g fill="#61DAFB" id="svg_1">
   <path d="m666.3,296.5c0,-32.5 -40.7,-63.3 -103.1,-82.4c14.4,-63.6 8,-114.2 -20.2,-130.4c-6.5,-3.8 -14.1,-5.6 -22.4,-5.6l0,22.3c4.6,0 8.3,0.9 11.4,2.6c13.6,7.8 19.5,37.5 14.9,75.7c-1.1,9.4 -2.9,19.3 -5.1,29.4c-19.6,-4.8 -41,-8.5 -63.5,-10.9c-13.5,-18.5 -27.5,-35.3 -41.6,-50c32.6,-30.3 63.2,-46.9 84,-46.9l0,-22.3c-27.5,0 -63.5,19.6 -99.9,53.6c-36.4,-33.8 -72.4,-53.2 -99.9,-53.2l0,22.3c20.7,0 51.4,16.5 84,46.6c-14,14.7 -28,31.4 -41.3,49.9c-22.6,2.4 -44,6.1 -63.6,11c-2.3,-10 -4,-19.7 -5.2,-29c-4.7,-38.2 1.1,-67.9 14.6,-75.8c3,-1.8 6.9,-2.6 11.5,-2.6l0,-22.3c-8.4,0 -16,1.8 -22.6,5.6c-28.1,16.2 -34.4,66.7 -19.9,130.1c-62.2,19.2 -102.7,49.9 -102.7,82.3c0,32.5 40.7,63.3 103.1,82.4c-14.4,63.6 -8,114.2 20.2,130.4c6.5,3.8 14.1,5.6 22.5,5.6c27.5,0 63.5,-19.6 99.9,-53.6c36.4,33.8 72.4,53.2 99.9,53.2c8.4,0 16,-1.8 22.6,-5.6c28.1,-16.2 34.4,-66.7 19.9,-130.1c62,-19.1 102.5,-49.9 102.5,-82.3zm-130.2,-66.7c-3.7,12.9 -8.3,26.2 -13.5,39.5c-4.1,-8 -8.4,-16 -13.1,-24c-4.6,-8 -9.5,-15.8 -14.4,-23.4c14.2,2.1 27.9,4.7 41,7.9zm-45.8,106.5c-7.8,13.5 -15.8,26.3 -24.1,38.2c-14.9,1.3 -30,2 -45.2,2c-15.1,0 -30.2,-0.7 -45,-1.9c-8.3,-11.9 -16.4,-24.6 -24.2,-38c-7.6,-13.1 -14.5,-26.4 -20.8,-39.8c6.2,-13.4 13.2,-26.8 20.7,-39.9c7.8,-13.5 15.8,-26.3 24.1,-38.2c14.9,-1.3 30,-2 45.2,-2c15.1,0 30.2,0.7 45,1.9c8.3,11.9 16.4,24.6 24.2,38c7.6,13.1 14.5,26.4 20.8,39.8c-6.3,13.4 -13.2,26.8 -20.7,39.9zm32.3,-13c5.4,13.4 10,26.8 13.8,39.8c-13.1,3.2 -26.9,5.9 -41.2,8c4.9,-7.7 9.8,-15.6 14.4,-23.7c4.6,-8 8.9,-16.1 13,-24.1zm-101.4,106.7c-9.3,-9.6 -18.6,-20.3 -27.8,-32c9,0.4 18.2,0.7 27.5,0.7c9.4,0 18.7,-0.2 27.8,-0.7c-9,11.7 -18.3,22.4 -27.5,32zm-74.4,-58.9c-14.2,-2.1 -27.9,-4.7 -41,-7.9c3.7,-12.9 8.3,-26.2 13.5,-39.5c4.1,8 8.4,16 13.1,24c4.7,8 9.5,15.8 14.4,23.4zm73.9,-208.1c9.3,9.6 18.6,20.3 27.8,32c-9,-0.4 -18.2,-0.7 -27.5,-0.7c-9.4,0 -18.7,0.2 -27.8,0.7c9,-11.7 18.3,-22.4 27.5,-32zm-74,58.9c-4.9,7.7 -9.8,15.6 -14.4,23.7c-4.6,8 -8.9,16 -13,24c-5.4,-13.4 -10,-26.8 -13.8,-39.8c13.1,-3.1 26.9,-5.8 41.2,-7.9zm-90.5,125.2c-35.4,-15.1 -58.3,-34.9 -58.3,-50.6c0,-15.7 22.9,-35.6 58.3,-50.6c8.6,-3.7 18,-7 27.7,-10.1c5.7,19.6 13.2,40 22.5,60.9c-9.2,20.8 -16.6,41.1 -22.2,60.6c-9.9,-3.1 -19.3,-6.5 -28,-10.2zm53.8,142.9c-13.6,-7.8 -19.5,-37.5 -14.9,-75.7c1.1,-9.4 2.9,-19.3 5.1,-29.4c19.6,4.8 41,8.5 63.5,10.9c13.5,18.5 27.5,35.3 41.6,50c-32.6,30.3 -63.2,46.9 -84,46.9c-4.5,-0.1 -8.3,-1 -11.3,-2.7zm237.2,-76.2c4.7,38.2 -1.1,67.9 -14.6,75.8c-3,1.8 -6.9,2.6 -11.5,2.6c-20.7,0 -51.4,-16.5 -84,-46.6c14,-14.7 28,-31.4 41.3,-49.9c22.6,-2.4 44,-6.1 63.6,-11c2.3,10.1 4.1,19.8 5.2,29.1zm38.5,-66.7c-8.6,3.7 -18,7 -27.7,10.1c-5.7,-19.6 -13.2,-40 -22.5,-60.9c9.2,-20.8 16.6,-41.1 22.2,-60.6c9.9,3.1 19.3,6.5 28.1,10.2c35.4,15.1 58.3,34.9 58.3,50.6c-0.1,15.7 -23,35.6 -58.4,50.6zm-264.9,-268.7z" id="svg_2"/>
   <circle cx="420.9" cy="296.5" r="45.7" id="svg_3"/>
   <path d="m520.5,78.1z" id="svg_4"/>
  </g>
 </g>
 <g class="layer">
  <title>Layer 2</title>
  <g id="svgg">
   <path fill-rule="evenodd" fill="#f9f9f9" d="m401.09262,284.08445c-0.17147,0.04991 -0.73265,0.18328 -1.24706,0.29658c-3.53478,0.77903 -6.64774,3.37998 -8.23462,6.88015c-0.68682,1.51445 -1.01822,3.93586 -0.74013,5.40183c0.4081,2.14978 0.68495,2.87545 1.78984,4.69452c3.31031,5.45002 12.33307,7.08752 17.85036,3.23944c8.67826,-6.05265 5.73802,-18.41006 -4.86664,-20.45285c-0.93155,-0.17955 -4.00087,-0.21971 -4.55175,-0.05966m34.0624,0.17955c-9.57926,2.38412 -12.65731,13.11349 -5.54597,19.33221c7.41842,6.48748 19.47808,2.47332 20.85888,-6.94267c0.21699,-1.48061 0.15869,-2.1971 -0.34575,-4.24506c-1.41884,-5.76238 -8.67452,-9.71057 -14.96716,-8.14448m-29.91095,6.84085c1.36771,0.63848 2.32794,1.58989 2.70518,2.68041c0.08729,0.25241 0.20763,0.57738 0.26749,0.72252c0.15339,0.37144 0.12813,1.0082 -0.06921,1.7442c-0.83459,3.11409 -4.15363,4.59183 -7.19208,3.20186c-3.7181,-1.70089 -3.61615,-6.72497 0.16835,-8.3074c0.93373,-0.39009 3.32185,-0.41447 4.12027,-0.04159m35.0987,0.09379c2.11781,0.92158 3.43283,3.65562 2.63503,5.47813c-2.09599,4.78888 -8.92362,4.23616 -9.84426,-0.79681c-0.62571,-3.41956 3.68193,-6.21643 7.20923,-4.68132" id="path0"/>
   <path fill-rule="evenodd" fill="#a06a3c" d="m418.61376,246.95828c-0.20576,0.07199 -0.43023,0.17038 -0.49882,0.21856c-0.06859,0.0479 -0.26749,0.18558 -0.44239,0.30547c-0.17459,0.12018 -0.42712,0.42881 -0.56118,0.68581c-0.13375,0.25728 -0.28558,0.46839 -0.33702,0.46896c-0.05144,0.00086 -0.09353,0.25642 -0.09353,0.56821c0,0.31178 -0.05612,0.5989 -0.12471,0.63791c-0.06859,0.03901 -0.12471,0.1939 -0.12471,0.34419c0,0.1503 -0.05612,0.30519 -0.12471,0.34419c-0.06859,0.03901 -0.12471,0.19992 -0.12471,0.35767c0,0.16206 -0.05425,0.25614 -0.12471,0.21598c-0.06984,-0.03958 -0.12471,0.04905 -0.12471,0.20135c0,0.7512 -1.72624,3.20244 -3.33587,4.73697c-0.2915,0.27794 -0.53,0.53207 -0.53,0.56448c0,0.08777 -0.35479,0.46982 -1.12235,1.20869c-0.6943,0.66802 -1.62117,1.6223 -1.62117,1.66848c0,0.01405 -0.477,0.4661 -1.06,1.00505c-0.583,0.53866 -1.06,1.03545 -1.06,1.10371c0,0.06798 -0.05612,0.12391 -0.12471,0.12391c-0.06859,0 -0.12471,0.05392 -0.12471,0.11989c0,0.06597 -0.13593,0.24495 -0.3021,0.39783c-0.16617,0.15288 -0.33826,0.38292 -0.38253,0.51113c-0.04427,0.12821 -0.12595,0.23319 -0.18145,0.23319c-0.05581,0 -0.17116,0.15489 -0.25627,0.34419c-0.08511,0.18931 -0.20421,0.34419 -0.26469,0.34419c-0.06017,0 -0.10943,0.09896 -0.10943,0.22c0,0.12075 -0.04209,0.23692 -0.09353,0.25815c-0.15183,0.06195 -0.90412,1.48606 -0.90412,1.71122c0,0.11358 -0.05612,0.23835 -0.12471,0.27736c-0.06859,0.03901 -0.12471,0.18845 -0.12471,0.33186c0,0.14341 -0.04209,0.29974 -0.09353,0.34706c-0.05144,0.04704 -0.10226,0.19762 -0.11286,0.33444c-0.03959,0.5031 -0.20576,1.17055 -0.32704,1.31195c-0.14029,0.16407 -0.31862,0.86307 -0.4162,1.63291c-0.106,0.83524 -0.75509,1.8357 -1.19125,1.8357c-0.09821,0 -0.23289,0.04991 -0.29898,0.11072c-0.06828,0.06282 -1.20964,0.11617 -2.6422,0.12334c-1.39171,0.00717 -2.55397,0.06023 -2.59325,0.11875c-0.03897,0.05851 -0.34855,0.10613 -0.68744,0.10613c-0.33889,0 -0.61605,0.05163 -0.61605,0.11473c0,0.0631 -0.16492,0.11473 -0.36663,0.11473c-0.20171,0 -0.40155,0.05163 -0.44395,0.11473c-0.0424,0.0631 -0.18612,0.11473 -0.31925,0.11473c-0.13312,0 -0.24193,0.05163 -0.24193,0.11473c0,0.0631 -0.0848,0.11473 -0.18862,0.11473c-0.10382,0 -0.31426,0.05966 -0.46765,0.13251c-0.15339,0.07314 -0.36321,0.16837 -0.46609,0.21168c-0.10288,0.04331 -0.29929,0.13395 -0.43647,0.20135c-0.13718,0.0674 -0.57209,0.26446 -0.96647,0.43827c-0.39438,0.17353 -0.71706,0.35882 -0.71706,0.4116c0,0.05278 -0.08418,0.09609 -0.18706,0.09609c-0.10288,0 -0.18706,0.05163 -0.18706,0.11473c0,0.0631 -0.05331,0.11473 -0.11847,0.11473c-0.14029,0 -1.48275,1.22848 -1.75211,1.60337c-0.10288,0.14341 -0.24629,0.31867 -0.31862,0.3898c-0.32486,0.31895 -0.80373,1.06155 -0.80373,1.24598c0,0.11158 -0.05612,0.20279 -0.12471,0.20279c-0.06859,0 -0.12471,0.07257 -0.12471,0.1612c0,0.08863 -0.11224,0.37259 -0.24941,0.63102c-0.13718,0.25843 -0.36165,0.68122 -0.49882,0.93965c-0.13718,0.25843 -0.24941,0.59689 -0.24941,0.75235c0,0.15575 -0.04676,0.25642 -0.10351,0.22401c-0.05705,-0.03241 -0.1166,0.23405 -0.13219,0.59201c-0.0159,0.35825 -0.08885,0.71793 -0.16243,0.79939c-0.1855,0.20537 0.07139,3.89111 0.28526,4.09791c0.06204,0.05995 0.11286,0.2504 0.11286,0.42336c0,0.17296 0.05612,0.34649 0.12471,0.3855c0.06859,0.03901 0.12471,0.17124 0.12471,0.29371c0,0.12248 0.05612,0.22258 0.12471,0.22258c0.06859,0 0.12471,0.1001 0.12471,0.22258c0,0.12248 0.05612,0.2547 0.12471,0.29371c0.06859,0.03901 0.12471,0.19705 0.12471,0.35108c0,0.15403 0.05612,0.27994 0.12471,0.27994c0.06859,0 0.12471,0.08003 0.12471,0.17783c0,0.21512 0.34138,0.84127 0.57739,1.05811c0.28651,0.2636 0.19392,0.3703 -0.32049,0.3703c-0.2703,0 -0.52626,0.05163 -0.56866,0.11473c-0.0424,0.0631 -0.38253,0.11473 -0.75572,0.11473c-0.37318,0 -0.6784,0.05163 -0.6784,0.11473c0,0.0631 -0.21979,0.11473 -0.48853,0.11473c-0.26843,0 -0.50693,0.03872 -0.53,0.08605c-0.02276,0.04733 -0.65876,0.36743 -1.41323,0.71133c-0.75447,0.34391 -1.39982,0.65397 -1.43411,0.68867c-0.03429,0.03471 -0.21668,0.13624 -0.40529,0.22573c-0.18862,0.08949 -0.34294,0.20566 -0.34294,0.25815c0,0.0522 -0.08761,0.09523 -0.19454,0.09523c-0.10694,0 -0.15962,0.05163 -0.11722,0.11473c0.0424,0.0631 0.00031,0.11473 -0.09384,0.11473c-0.09384,0 -0.29368,0.10527 -0.44395,0.23405c-0.14996,0.1285 -0.27279,0.20824 -0.27279,0.17726c0,-0.03126 -0.14029,0.07228 -0.31176,0.23004c-0.17147,0.15776 -0.31176,0.31408 -0.31176,0.34735c0,0.13538 -0.35136,0.37144 -0.44177,0.29658c-0.05331,-0.04446 -0.05892,-0.0195 -0.01216,0.05536c0.04645,0.07486 -0.05456,0.26388 -0.22447,0.42049c-0.16991,0.15632 -0.34543,0.41791 -0.39002,0.58111c-0.04458,0.16292 -0.11754,0.29658 -0.16212,0.29658c-0.04458,0 -0.22073,0.28253 -0.39158,0.62787c-0.17085,0.34534 -0.35292,0.6293 -0.40436,0.63102c-0.05144,0.00172 -0.09353,0.10326 -0.09353,0.22573c0,0.12248 -0.05612,0.2547 -0.12471,0.29371c-0.06859,0.03901 -0.12471,0.17124 -0.12471,0.29371c0,0.12248 -0.04209,0.22287 -0.09353,0.22344c-0.14965,0.00143 -0.40529,0.59001 -0.40529,0.93305c0,0.17296 -0.05612,0.34649 -0.12471,0.3855c-0.06859,0.03901 -0.12471,0.34878 -0.12471,0.68839c0,0.3396 -0.06048,0.65196 -0.13468,0.69412c-0.08761,0.04991 -0.12034,0.52862 -0.09353,1.37161c0.02276,0.71219 0.08324,1.27122 0.13468,1.24283c0.05144,-0.02868 0.09353,0.28625 0.09353,0.70015c0,0.42537 0.05425,0.75264 0.12471,0.75264c0.06859,0 0.12471,0.1807 0.12471,0.40156c0,0.22086 0.05612,0.40156 0.12471,0.40156c0.06859,0 0.12471,0.1001 0.12471,0.22258c0,0.12248 0.04895,0.25069 0.10849,0.28453c0.08698,0.04933 0.24099,0.5226 0.26406,0.81201c0.00436,0.05335 0.65159,1.19636 0.95213,1.68167c0.07732,0.12448 0.18955,0.20996 0.24941,0.19017c0.06017,-0.01979 0.29431,0.22229 0.52033,0.5378c0.65252,0.91039 1.29569,1.49208 2.03613,1.84115c0.60545,0.28568 0.64878,0.41992 0.19485,0.60291c-0.21855,0.08834 -0.61293,0.25843 -0.87668,0.37833c-0.26375,0.11989 -0.55712,0.21799 -0.6519,0.21799c-0.37474,0 -1.74027,0.68179 -2.24065,1.11863c-0.09041,0.07888 -0.19641,0.14341 -0.23538,0.14341c-0.16898,0 -2.93962,2.48106 -2.93962,2.63222c0,0.05765 -0.07015,0.17439 -0.15588,0.25929c-0.45642,0.45233 -0.96647,1.13268 -0.96647,1.28958c0,0.0981 -0.05612,0.17869 -0.12471,0.17869c-0.06859,0 -0.12471,0.10641 -0.12471,0.23635c0,0.12993 -0.05549,0.20451 -0.12315,0.16607c-0.07202,-0.04073 -0.09104,0.00746 -0.04583,0.11559c0.0424,0.10211 0.01372,0.3115 -0.06391,0.46495c-0.07763,0.15345 -0.19735,0.40816 -0.26593,0.56591c-0.30522,0.70187 -0.41028,0.93076 -0.51348,1.1172c-0.06048,0.10957 -0.11005,0.30318 -0.11005,0.43024c0,0.12706 -0.05082,0.2309 -0.11255,0.2309c-0.18145,0 -0.27996,1.04176 -0.33982,3.58535c-0.03772,1.6028 -0.01372,2.38067 0.07358,2.38067c0.07202,0 0.12938,0.25356 0.12938,0.57366c0,0.31551 0.05612,0.57366 0.12471,0.57366c0.06859,0 0.12471,0.1001 0.12471,0.22258c0,0.12248 0.05019,0.25126 0.11161,0.28625c0.06142,0.03471 0.13998,0.25728 0.17459,0.4942c0.12845,0.87597 0.28963,1.24512 0.88853,2.03734c0.2862,0.37861 0.62446,0.90781 0.75166,1.176c0.1272,0.26818 0.27903,0.48761 0.33733,0.48761c0.05799,0 0.10569,0.05564 0.10569,0.12362c0,0.1612 0.87294,0.96518 1.14636,1.0561c0.11598,0.03843 0.31176,0.21483 0.43491,0.39181c0.28526,0.40988 0.38098,0.49765 0.91284,0.83696c0.24006,0.15317 0.50973,0.37087 0.59952,0.48388c0.08948,0.11301 0.23538,0.20537 0.32361,0.20537c0.26375,0 0.96054,0.3571 1.03225,0.52891c0.03679,0.08777 0.14466,0.15948 0.24037,0.15948c0.0954,0 0.17365,0.04216 0.17365,0.09351c0,0.13165 0.97426,0.59488 1.25142,0.59488c0.12658,0 0.265,0.05163 0.3074,0.11473c0.0424,0.0631 0.1961,0.11473 0.34138,0.11473c0.34762,0 1.09273,0.2504 1.09273,0.36714c0,0.05048 0.16492,0.09178 0.36663,0.09178c0.20171,0 0.40155,0.05163 0.44395,0.11473c0.0424,0.0631 0.35105,0.11473 0.68588,0.11473c0.33483,0 0.63912,0.04503 0.6759,0.09982c0.0901,0.13424 73.66889,0.13739 73.84816,0.00344c0.18955,-0.14198 1.39795,-0.36026 1.88929,-0.34133c0.22291,0.0086 0.40529,-0.03757 0.40529,-0.1024c0,-0.06511 0.16835,-0.11846 0.37412,-0.11846c0.20576,0 0.37412,-0.05163 0.37412,-0.11473c0,-0.0631 0.14029,-0.11473 0.31176,-0.11473c0.17147,0 0.31176,-0.05163 0.31176,-0.11473c0,-0.0631 0.11224,-0.11473 0.24941,-0.11473c0.13718,0 0.24941,-0.05163 0.24941,-0.11473c0,-0.0631 0.11224,-0.11473 0.24941,-0.11473c0.13718,0 0.24941,-0.05163 0.24941,-0.11473c0,-0.0631 0.11224,-0.11473 0.24941,-0.11473c0.13718,0 0.24941,-0.05163 0.24941,-0.11473c0,-0.0631 0.06017,-0.11473 0.13343,-0.11473c0.15806,0 1.28229,-0.69097 1.34214,-0.8252c0.02307,-0.05106 0.12128,-0.09265 0.21823,-0.09265c0.09727,0 0.17677,-0.05163 0.17677,-0.11473c0,-0.0631 0.06391,-0.11473 0.14216,-0.11473c0.78907,0 3.87772,-3.79674 4.73663,-5.82261c0.06017,-0.14198 0.16461,-0.37431 0.23226,-0.51629c0.34419,-0.72395 0.79282,-3.28963 0.79718,-4.56057c0.00561,-1.65184 -0.16991,-3.55667 -0.32798,-3.55667c-0.06578,0 -0.09789,-0.20652 -0.07171,-0.45892c0.03274,-0.31867 -0.00125,-0.45892 -0.11161,-0.45892c-0.08761,0 -0.15931,-0.12907 -0.15931,-0.28683c0,-0.15776 -0.04396,-0.28683 -0.09758,-0.28683c-0.0901,0 -0.28308,-0.52576 -0.4745,-1.29187c-0.04334,-0.1741 -0.12907,-0.34477 -0.18986,-0.37947c-0.06111,-0.03471 -0.11099,-0.16349 -0.11099,-0.28597c0,-0.12248 -0.05612,-0.22258 -0.12471,-0.22258c-0.06859,0 -0.12471,-0.06568 -0.12471,-0.146c0,-0.08031 -0.25159,-0.39783 -0.55868,-0.70588c-0.3074,-0.30805 -0.59485,-0.66429 -0.63912,-0.79222c-0.08418,-0.24409 -1.4868,-1.56838 -1.66108,-1.56838c-0.05581,0 -0.34699,-0.222 -0.64753,-0.49306c-0.68432,-0.61754 -1.87931,-1.34264 -2.21259,-1.34264c-0.13873,0 -0.28682,-0.05163 -0.32922,-0.11473c-0.0424,-0.0631 -0.15806,-0.11473 -0.25689,-0.11473c-0.09883,0 -0.29181,-0.10326 -0.42899,-0.22946c-0.13718,-0.1262 -0.3897,-0.22946 -0.56118,-0.22946c-0.17147,0 -0.31176,-0.05163 -0.31176,-0.11473c0,-0.0631 -0.18238,-0.11703 -0.40529,-0.11989l-0.40529,-0.00488l0.49882,-0.23921c0.55089,-0.26388 2.95646,-2.48766 2.85513,-2.63882c-0.03523,-0.0522 -0.01403,-0.09494 0.04708,-0.09494c0.10849,0 1.08837,-1.45823 1.08837,-1.62001c0,-0.04503 0.04209,-0.12047 0.09353,-0.16779c0.05144,-0.04733 0.09353,-0.23233 0.09353,-0.41131c0,-0.17869 0.05612,-0.32498 0.12471,-0.32498c0.06859,0 0.12471,-0.13825 0.12471,-0.30748c0,-0.31293 0.19173,-0.96604 0.38939,-1.32601c0.06017,-0.10957 0.10943,-0.43225 0.10943,-0.71707c0,-0.28482 0.05612,-0.51772 0.12471,-0.51772c0.07482,0 0.12471,-0.45892 0.12471,-1.14731c0,-0.68839 -0.04988,-1.14731 -0.12471,-1.14731c-0.07108,0 -0.12471,-0.3419 -0.12471,-0.79623c0,-0.43799 -0.05612,-0.82836 -0.12471,-0.86737c-0.06859,-0.03901 -0.12471,-0.21254 -0.12471,-0.3855c0,-0.17296 -0.04458,-0.36341 -0.09914,-0.42336c-0.05456,-0.05995 -0.17459,-0.31551 -0.26656,-0.56792c-0.09166,-0.25241 -0.26375,-0.588 -0.38222,-0.74575c-0.11847,-0.15776 -0.25222,-0.47327 -0.29711,-0.70129c-0.04521,-0.22803 -0.19329,-0.50711 -0.32922,-0.62012c-0.13593,-0.11301 -0.24692,-0.27249 -0.24692,-0.35423c0,-0.08175 -0.32268,-0.46007 -0.71706,-0.84069c-0.39438,-0.38062 -0.89539,-0.88859 -1.11362,-1.12924c-0.21792,-0.24036 -0.55463,-0.51199 -0.74823,-0.60377c-0.19329,-0.0915 -0.44239,-0.257 -0.55338,-0.36771c-0.11099,-0.111 -0.28495,-0.20164 -0.3869,-0.20164c-0.10164,0 -0.36102,-0.15489 -0.57645,-0.34419c-0.21543,-0.18931 -0.47606,-0.34419 -0.57957,-0.34419c-0.10351,0 -0.18831,-0.05163 -0.18831,-0.11473c0,-0.0631 -0.11224,-0.11473 -0.24941,-0.11473c-0.13718,0 -0.24941,-0.05163 -0.24941,-0.11473c0,-0.0631 -0.10881,-0.11473 -0.24193,-0.11473c-0.13312,0 -0.27685,-0.05163 -0.31925,-0.11473c-0.0424,-0.0631 -0.22821,-0.11559 -0.41278,-0.11645c-0.34793,-0.00172 -1.20216,-0.24094 -1.3515,-0.37861c-0.04708,-0.04331 -0.3286,-0.07859 -0.62602,-0.07859c-0.29711,0 -0.54029,-0.05163 -0.54029,-0.11473c0,-0.0631 -0.25253,-0.11473 -0.56118,-0.11473c-0.30865,0 -0.56118,-0.02926 -0.56118,-0.06482c0,-0.10068 0.27622,-0.55931 0.37536,-0.62356c0.15931,-0.10297 0.49758,-0.78648 0.49758,-1.00533c0,-0.1176 0.11224,-0.42737 0.24941,-0.68867c0.13718,-0.26101 0.24941,-0.55157 0.24941,-0.64565c0,-0.09408 0.05612,-0.20279 0.12471,-0.2418c0.06859,-0.03901 0.12471,-0.19705 0.12471,-0.35108c0,-0.15403 0.05612,-0.27994 0.12471,-0.27994c0.0689,0 0.12471,-0.2983 0.12471,-0.66544c0,-0.36599 0.06329,-0.72367 0.14029,-0.79451c0.09634,-0.08863 0.11473,-0.46495 0.05799,-1.19894c-0.04552,-0.58857 -0.11411,-1.4829 -0.15245,-1.98772c-0.03804,-0.50482 -0.12034,-0.9669 -0.18238,-1.02684c-0.06204,-0.05995 -0.11286,-0.22545 -0.11286,-0.36743c0,-0.24294 -0.22821,-0.83094 -0.37162,-0.95772c-0.17365,-0.15345 -0.37661,-0.59746 -0.37661,-0.82348c0,-0.29744 -0.90287,-1.73875 -1.22399,-1.95387c-0.12159,-0.08146 -0.3869,-0.35481 -0.58892,-0.60722c-0.55899,-0.69785 -1.55258,-1.52765 -2.14556,-1.79182c-0.29181,-0.12993 -0.53093,-0.28339 -0.53093,-0.34104c0,-0.05737 -0.08418,-0.10441 -0.18706,-0.10441c-0.10288,0 -0.18706,-0.04561 -0.18706,-0.10125c0,-0.05593 -0.09821,-0.1328 -0.21823,-0.17124c-0.12003,-0.03872 -0.46952,-0.19562 -0.77692,-0.34936c-0.30709,-0.15345 -0.88229,-0.34505 -1.27823,-0.42594c-0.39563,-0.08089 -0.71955,-0.18787 -0.71955,-0.23807c0,-0.04991 -0.13686,-0.09092 -0.30428,-0.09092c-0.16742,0 -0.3392,-0.05163 -0.3816,-0.11473c-0.0424,-0.0631 -0.32642,-0.11473 -0.63101,-0.11473c-0.30459,0 -0.55369,-0.05163 -0.55369,-0.11473c0,-0.06884 -0.49945,-0.11473 -1.24861,-0.11473c-0.76881,0 -1.35493,-0.05507 -1.52453,-0.14341c-0.45486,-0.23663 -1.34214,-1.13985 -1.34214,-1.36645c0,-0.11617 -0.05612,-0.21111 -0.12471,-0.21111c-0.07139,0 -0.12471,-0.34419 -0.12471,-0.80312c0,-0.45892 -0.05331,-0.80312 -0.12471,-0.80312c-0.06859,0 -0.12471,-0.1807 -0.12471,-0.40156c0,-0.22086 -0.05612,-0.40156 -0.12471,-0.40156c-0.06859,0 -0.12471,-0.20652 -0.12471,-0.45892c0,-0.25241 -0.05612,-0.45892 -0.12471,-0.45892c-0.06859,0 -0.12471,-0.12592 -0.12471,-0.27994c0,-0.15403 -0.05612,-0.31207 -0.12471,-0.35108c-0.06859,-0.03901 -0.12471,-0.27449 -0.12471,-0.52317c0,-0.24868 -0.05612,-0.45204 -0.12471,-0.45204c-0.06859,0 -0.12471,-0.10326 -0.12471,-0.22946c0,-0.1262 -0.05612,-0.22946 -0.12471,-0.22946c-0.06859,0 -0.12471,-0.12592 -0.12471,-0.27994c0,-0.15403 -0.05082,-0.3092 -0.11286,-0.34448c-0.06235,-0.03528 -0.08386,-0.16751 -0.04801,-0.29343c0.04739,-0.16607 0.00374,-0.22946 -0.15713,-0.22946c-0.12221,0 -0.18737,-0.03212 -0.14466,-0.07142c0.04271,-0.03958 -0.05269,-0.23319 -0.21231,-0.43024c-0.15931,-0.19734 -0.32704,-0.51371 -0.37225,-0.70302c-0.12065,-0.50539 -0.69991,-1.49896 -1.12048,-1.92261c-0.20171,-0.20336 -0.47263,-0.58972 -0.60202,-0.85876c-0.12938,-0.26904 -0.37287,-0.61553 -0.54091,-0.77042c-0.16835,-0.1546 -0.30584,-0.33329 -0.30584,-0.39668c0,-0.06339 -0.28059,-0.36169 -0.62353,-0.66315c-0.34294,-0.30146 -0.62353,-0.62012 -0.62353,-0.70847c0,-0.08806 -0.09883,-0.24352 -0.21948,-0.34563c-0.12096,-0.10211 -0.38409,-0.39209 -0.58487,-0.6445c-0.20078,-0.25241 -0.4717,-0.53637 -0.60202,-0.63102c-0.79531,-0.5771 -0.96304,-0.72051 -0.96304,-0.82148c0,-0.14743 -1.62928,-1.58788 -1.79607,-1.58788c-0.07077,0 -0.47045,-0.32268 -0.88822,-0.71707c-0.92563,-0.87339 -1.38828,-1.21959 -1.82881,-1.3676c-0.18456,-0.06224 -0.48199,-0.2897 -0.66094,-0.50568c-0.17926,-0.21598 -0.38285,-0.39267 -0.45299,-0.39267c-0.06984,0 -0.20545,-0.06454 -0.30116,-0.14341c-0.43242,-0.35681 -0.55837,-0.43024 -0.73826,-0.43024c-0.10569,0 -0.19236,-0.03872 -0.19236,-0.08634c0,-0.04733 -0.25253,-0.20938 -0.56118,-0.35997c-0.30865,-0.15058 -0.56118,-0.31838 -0.56118,-0.37288c0,-0.05421 -0.07077,-0.09867 -0.15713,-0.09867c-0.08636,0 -0.22696,-0.10326 -0.3127,-0.22946c-0.08574,-0.1262 -0.22883,-0.22946 -0.31831,-0.22946c-0.08948,0 -0.27123,-0.09207 -0.40436,-0.2048c-0.13281,-0.11272 -0.5222,-0.3244 -0.86515,-0.4704c-0.34294,-0.14571 -0.73576,-0.3505 -0.87294,-0.45462c-0.65065,-0.49449 -1.43068,-0.60607 -2.2447,-0.32096m-12.98372,37.02664c0.28215,0.06798 0.73763,0.17726 1.01199,0.24237c1.43318,0.34133 3.11858,1.13268 4.38745,2.06029c0.86857,0.63532 2.40713,2.14519 2.40838,2.36346c0.00031,0.07888 0.04645,0.14341 0.10226,0.14341c0.20639,0 1.27636,1.95731 1.63053,2.98301c2.73947,7.9328 -4.12807,15.82029 -13.07694,15.01918c-1.73684,-0.15546 -2.24127,-0.2309 -2.31859,-0.34563c-0.03804,-0.05651 -0.20265,-0.10268 -0.36601,-0.10268c-0.16336,0 -0.33172,-0.05163 -0.37412,-0.11473c-0.0424,-0.0631 -0.16555,-0.11473 -0.27342,-0.11473c-0.93436,0 -4.23812,-2.21001 -5.4063,-3.61662c-0.48323,-0.58197 -0.99203,-1.31195 -0.99203,-1.42353c0,-0.0674 -0.04302,-0.12276 -0.0954,-0.12276c-0.10257,0 -0.43148,-0.63016 -0.80872,-1.54887c-1.10489,-2.69274 -1.07496,-5.69927 0.08293,-8.31801c0.51846,-1.17313 0.62602,-1.37677 0.72703,-1.37677c0.05175,0 0.09415,-0.05536 0.09415,-0.12276c0,-0.11158 0.5088,-0.84155 0.99203,-1.42353c1.40076,-1.68655 4.20819,-3.40723 6.42795,-3.93958c0.27435,-0.06568 0.69523,-0.16952 0.93529,-0.2309c0.6042,-0.15374 4.28457,-0.16206 4.91153,-0.01061m35.33813,0.05077c0.29181,0.04331 0.5618,0.12506 0.59952,0.18156c0.03804,0.05651 0.17864,0.10268 0.3127,0.10268c0.13406,0 0.34107,0.04532 0.46016,0.10068c0.11909,0.05564 0.57926,0.24925 1.02227,0.43024c3.24889,1.32859 5.96841,4.24592 6.885,7.38554c1.90457,6.52362 -2.31516,12.87485 -9.60202,14.45269c-0.99889,0.21627 -4.26649,0.18156 -5.19679,-0.05536c-0.41153,-0.10469 -0.91659,-0.23147 -1.12235,-0.28167c-5.57964,-1.361 -9.60233,-7.33678 -8.59502,-12.76758c0.30148,-1.62459 1.48743,-4.41142 2.03894,-4.79003c0.04583,-0.03155 0.21699,-0.23807 0.38035,-0.45892c1.44035,-1.94814 3.9912,-3.42846 7.48514,-4.34401c0.46578,-0.1219 4.43796,-0.0892 5.3321,0.04417m-5.89327,27.36082c0.0424,0.0631 0.23788,0.11473 0.43429,0.11473c0.45112,0 1.3303,0.61066 1.6511,1.14731c0.52376,0.87597 0.00748,3.03149 -1.37924,5.76152c-0.90443,1.77977 -2.43363,3.59338 -4.23874,5.02752c-0.43429,0.34477 -0.88323,0.70674 -0.99764,0.80427c-3.92823,3.349 -12.45871,4.15901 -17.76743,1.68741c-4.77747,-2.22435 -8.34499,-6.33976 -9.57271,-11.04346c-0.46016,-1.76285 -0.16773,-2.69332 1.0681,-3.39949c0.43242,-0.24696 30.63767,-0.34505 30.80228,-0.09982" id="path1"/>
   <path fill-rule="evenodd" fill="#787675" d="m401.07735,291.35784c-1.16506,0.53981 -2.02896,1.38997 -2.3507,2.31269c-0.08792,0.25241 -0.20888,0.57738 -0.26874,0.72252c-0.34294,0.83094 0.08044,2.65201 0.84052,3.61489c1.77082,2.24443 5.743,2.39329 7.58054,0.28396c0.47295,-0.54268 0.49539,-0.57366 0.66717,-0.92129c0.30709,-0.62156 0.38659,-0.8384 0.47388,-1.29073c0.18862,-0.9778 0.06672,-1.69171 -0.47388,-2.78051c-0.38565,-0.77644 -1.16194,-1.48118 -2.11501,-1.92003c-1.29101,-0.59402 -3.09893,-0.6032 -4.35378,-0.02151m34.99519,-0.05392c-0.98736,0.43483 -1.89646,1.23738 -2.29271,2.02415c-0.09478,0.18845 -0.23445,0.46552 -0.31021,0.61553c-0.18893,0.37431 -0.17677,2.43202 0.01652,2.80977c0.08511,0.16579 0.22478,0.44372 0.31052,0.61725c0.08574,0.17353 0.19703,0.36714 0.24754,0.43024c2.47509,3.0986 7.26628,2.53986 8.6686,-1.01107c1.43536,-3.63469 -2.83393,-7.16181 -6.64026,-5.48587" id="path3"/>
   <path fill-rule="evenodd" fill="#a4a4a4" d="m400.71851,283.99554c-0.24006,0.06138 -0.66094,0.16521 -0.93529,0.23147c-0.80279,0.19332 -0.84987,0.20996 -0.77723,0.2765c0.03804,0.03499 0.42462,-0.02094 0.85953,-0.1242c0.43491,-0.10326 0.99359,-0.23635 1.24144,-0.29572c1.15633,-0.2765 4.35628,-0.08261 5.78229,0.3505c0.25035,0.07601 0.4876,0.10842 0.52719,0.07199c0.07545,-0.06941 0.02744,-0.08662 -0.77442,-0.27822c-0.27435,-0.06568 -0.72984,-0.17497 -1.01199,-0.24294c-0.62696,-0.15145 -4.30733,-0.14313 -4.91153,0.01061m34.91756,-0.00402c-3.49363,0.91556 -6.03139,2.38784 -7.48701,4.34401c-0.1643,0.22086 -0.36539,0.46466 -0.44645,0.54182c-0.58518,0.55587 -1.93855,3.75515 -1.9055,4.50406c0.00717,0.16177 0.08199,0.01147 0.17022,-0.3419c1.6988,-6.80786 8.88683,-10.59342 16.20019,-8.53142c0.15214,0.04274 0.20421,0.02151 0.1484,-0.06109c-0.04676,-0.06999 -0.21886,-0.12706 -0.38222,-0.12706c-0.16336,0 -0.32798,-0.04618 -0.36601,-0.10268c-0.17459,-0.25987 -5.08799,-0.44659 -5.93162,-0.22573m-37.84815,0.919c-1.61806,0.75694 -3.51452,2.14978 -4.43266,3.2555c-0.48323,0.58197 -0.99203,1.31195 -0.99203,1.42353c0,0.0674 -0.0424,0.12276 -0.09415,0.12276c-0.10101,0 -0.20857,0.20365 -0.72703,1.37677c-1.15789,2.61874 -1.18782,5.62527 -0.08293,8.31801c0.37723,0.91871 0.70615,1.54887 0.80872,1.54887c0.05238,0 0.0954,0.0522 0.0954,0.11617c0,0.16579 0.79063,1.25602 0.91253,1.2586c0.05612,0.00115 -0.02806,-0.16493 -0.18706,-0.36915c-0.30833,-0.39611 -0.35915,-0.47556 -0.94714,-1.48548c-0.7766,-1.33375 -1.39951,-3.61145 -1.39951,-5.11931c0,-1.05782 0.44707,-3.16572 0.86889,-4.09562c1.28509,-2.83444 3.36674,-4.91136 6.23559,-6.22159c0.58518,-0.26732 0.97956,-0.48445 0.87668,-0.48244c-0.10288,0.00172 -0.52376,0.16091 -0.93529,0.35337m45.73203,0.15374c2.95116,1.36243 5.28565,3.71184 6.27176,6.31165c2.12904,5.61237 -0.42525,11.55401 -6.08345,14.15095c-8.43134,3.86988 -17.84132,-1.59763 -17.93765,-10.42219c-0.01652,-1.51474 -0.19361,-1.44733 -0.22104,0.08404c-0.08729,4.91968 3.88302,9.96928 8.77709,11.16335c0.20576,0.05019 0.71082,0.17697 1.12235,0.28167c0.9303,0.23692 4.1979,0.27163 5.19679,0.05536c9.91846,-2.14748 13.44482,-12.98471 6.34845,-19.50947c-1.24487,-1.14473 -3.76923,-2.64914 -4.40273,-2.6239c-0.08761,0.00344 0.33047,0.23233 0.92843,0.50855m-34.44025,0.21111c8.09464,4.25423 8.82853,14.16242 1.43131,19.3216c-2.62162,1.82853 -6.697,2.58432 -10.08962,1.87155c-0.33483,-0.07027 -0.63756,-0.10154 -0.67247,-0.06941c-0.13281,0.12219 0.63475,0.25356 2.34478,0.40127c8.97132,0.77472 15.81672,-7.08924 13.07694,-15.02291c-0.35416,-1.0257 -1.42414,-2.98301 -1.63053,-2.98301c-0.05581,0 -0.10164,-0.06482 -0.10164,-0.1437c0,-0.36284 -3.23486,-3.18351 -3.65076,-3.18351c-0.04365,0 -0.36508,-0.15489 -0.71394,-0.34419c-0.34886,-0.18931 -0.70209,-0.34391 -0.78502,-0.34333c-0.08262,0.00057 0.27342,0.22344 0.79095,0.49564m-7.9559,5.87108c-3.7845,1.58243 -3.88645,6.60651 -0.16835,8.3074c3.03845,1.38997 6.35749,-0.08777 7.19208,-3.20186c0.19735,-0.736 0.2226,-1.37276 0.06921,-1.7442c-0.05986,-0.14514 -0.1802,-0.47011 -0.26749,-0.72252c-0.82337,-2.38039 -4.26306,-3.71012 -6.82545,-2.63882m34.72677,0.08748c-1.95258,1.00591 -3.04219,2.86914 -2.71702,4.64604c0.92064,5.03297 7.74827,5.58569 9.84426,0.79681c0.57708,-1.31826 -0.06048,-3.48525 -1.38361,-4.70369c-1.28665,-1.18489 -4.16111,-1.5549 -5.74363,-0.73916m-30.41943,0.14542c0.95306,0.43885 1.72935,1.14358 2.11501,1.92003c0.39251,0.7905 0.56242,1.4046 0.56242,2.03476c0,0.38837 -0.15152,1.14703 -0.29181,1.46282c-0.36009,0.81029 -0.40903,0.88831 -0.93779,1.49495c-1.83754,2.10933 -5.80972,1.96047 -7.58054,-0.28396c-0.76008,-0.96288 -1.18346,-2.78395 -0.84052,-3.61489c0.05986,-0.14514 0.18082,-0.47011 0.26874,-0.72252c0.79562,-2.282 4.1979,-3.44481 6.70448,-2.29118m34.52817,-0.19791c2.9337,1.09712 3.93696,4.41486 2.06949,6.84286c-1.71439,2.22894 -5.7324,2.37092 -7.56495,0.26761c-0.47295,-0.54268 -0.49539,-0.57366 -0.66717,-0.92129c-0.08574,-0.17353 -0.22541,-0.45147 -0.31052,-0.61725c-0.19329,-0.37775 -0.20545,-2.43546 -0.01652,-2.80977c0.07576,-0.15001 0.21543,-0.42709 0.31021,-0.61553c0.95743,-1.90081 4.00554,-2.95949 6.17947,-2.14662m-46.37364,11.56663c0.82087,1.0974 4.288,3.3708 5.14099,3.3708c0.08854,0 -0.38908,-0.25786 -1.06156,-0.5728c-1.48026,-0.69326 -1.80698,-0.91297 -3.23455,-2.17358c-0.61168,-0.54038 -0.99203,-0.82148 -0.84488,-0.62442m5.44932,3.48554c0.0424,0.0631 0.20015,0.111 0.35042,0.1067c0.26344,-0.00774 0.26406,-0.01176 0.02369,-0.1067c-0.34325,-0.13567 -0.46515,-0.13567 -0.37412,0" id="path4"/>
  </g>
 </g>
</svg>